<svg xmlns="http://www.w3.org/2000/svg" viewBox="0 0 240 120"><title>tnw-logo</title><path d="M109.65308,45.52732a15,15,0,0,0-10.60669-4.39346H77.16666v40h15v-25H96.9753a5.00793,5.00793,0,0,1,3.539,1.46439l5.181,5.17761a5.00622,5.00622,0,0,1,1.4714,3.53561V81.13386h15V64.2404a15.0071,15.0071,0,0,0-4.40018-10.60654Z" fill="#f42"/><path d="M187.16667,41.13386V55.95625a5.00612,5.00612,0,0,1-1.47141,3.53546l-5.18463,5.17762a4.99925,4.99925,0,0,1-3.53546,1.46453h-7.20535a14.979,14.979,0,0,0,2.39685-8.10669V41.13386h-15V55.95625a5.00612,5.00612,0,0,1-1.47141,3.53546l-5.18463,5.17762a4.99925,4.99925,0,0,1-3.53546,1.46453h-4.8085v-25h-15v40H149.0464a15.0076,15.0076,0,0,0,10.61-4.39346l5.01022-5.00809v9.40155H179.0464a15.0076,15.0076,0,0,0,10.61-4.39346l8.11-8.10669a15.00657,15.00657,0,0,0,4.40018-10.60654V41.13386Z" fill="#f42"/><polygon points="37.167 56.134 47.167 56.134 47.167 81.134 62.167 81.134 62.167 56.134 72.167 56.134 72.167 41.134 37.167 41.134 37.167 56.134" fill="#f42"/></svg>